<?xml version="1.0" standalone="no"?>
<!DOCTYPE svg PUBLIC "-//W3C//DTD SVG 1.1//EN" "http://www.w3.org/Graphics/SVG/1.1/DTD/svg11.dtd" >
<svg xmlns="http://www.w3.org/2000/svg" xmlns:xlink="http://www.w3.org/1999/xlink" version="1.1" viewBox="-10 0 272 256">
   <path fill="currentColor"
d="M85 24q7 10 4 14q-1 2 -9 21q-7 27 -8 48q-3 23 -2 71q-1 11 7 20q6 6 10 19q-2 5 -5 3q-5 -1 -8 -13q-5 -8 -13 -17q-3 -7 6 -11q-1 -36 1 -60q1 -25 4 -55q-20 31 -43 52q-5 4 -1 -2q15 -15 26 -35q1 -2 4 -7q6 -11 16 -26q9 -14 9 -22q-1 -4 2 0zM181 62q-14 2 -22 4
v17q15 -12 22 -21zM186 31q-17 7 -27 9q-1 22 -1 23q4 0 13 -2q6 -1 11 -2q11 -11 15 -24q0 -7 -11 -4zM107 154q16 11 38 23q-2 -6 4 -7q5 2 5 -5v-22v-11q-5 2 -13 4q-5 1 -7 1q-12 4 -19 1q-5 0 0 -1q17 -2 39 -7v-10q1 -7 1 -9q-17 5 -22 3q-4 0 0 -1q3 0 10 -2t12 -3
v-18q-12 4 -20 3q-5 0 0 -1t12 -3q3 0 8 -2v-21q-3 1 -7 2q-6 2 -10 3q-9 2 -18 1q-6 -1 0 -2q9 1 15 -2q3 0 7 -1q5 -2 13 -3v-24q-10 2 -17 0q-5 0 0 -2q10 0 17 -2q0 -19 -1 -23q0 -6 -2 -12q-3 -5 1 -1q8 9 8 11q-3 7 -2 25h4q13 -2 21 -5q9 -4 13 -1q5 6 10 11
q3 4 -2 6q-8 1 -15 12q23 -2 36 -8q5 -3 12 4q2 4 -2 4q-10 0 -30 4q-5 2 -4 1q1 -2 7 -4q3 -1 -1 -1q-12 1 -20 3q-19 18 -30 24h2q2 -1 9 -4q2 0 4 -2l2 -2q2 -2 5 -1q4 2 9 1q2 1 3 3q0 2 -2 2q-12 0 -32 6v18q11 -2 14 -6q0 -1 6 -1q2 1 6 1h5q2 1 2 2q-1 1 -4 1
q-16 2 -29 6v19q12 -2 29 -4q5 0 8 -2q4 -3 10 0q15 8 18 9q3 2 3 4q-1 1 -4 1q-13 -1 -20 -7q-3 -3 -16 -2q-6 0 -20 3q-4 1 -8 1q-1 2 -1 4v33q-1 11 5 17q3 3 27 15q11 3 19 3q19 -1 41 1q3 0 3 1t-2 2q-25 -1 -37 3q-8 2 -24 -7q-5 0 -15 -5q-5 -3 -7 -5q2 5 -3 5
q-6 1 -12 -11l-2 -4q-29 -16 -45 -27h-1q-7 20 -25 37q-5 3 -2 -2q16 -16 24 -37q-10 -6 -24 -5q-4 1 0 -1q12 -6 15 -4q3 1 8 5q0 1 2 1q3 -10 6 -24q0 -3 -4 -3q-5 2 -10 6q-1 1 -2 1q-3 2 -4 1t1 -4q12 -14 17 -44q0 -2 -1 -2q0 -1 -2 0q-12 9 -19 6q-4 0 0 -2
q7 -1 14 -5q2 -1 4 -3q1 -4 5 -4q1 1 4 2q2 1 4 1q2 2 2 3q0 2 -2 2q-3 1 -5 8q-8 21 -15 36q2 -1 4 -3q1 -1 4 -3q4 -4 14 2q3 2 1 4q-5 3 -7 10q-2 4 -3 9q-1 6 -2 9h1z" />
</svg>
