<?xml version="1.0" standalone="no"?>
<!DOCTYPE svg PUBLIC "-//W3C//DTD SVG 20010904//EN"
 "http://www.w3.org/TR/2001/REC-SVG-20010904/DTD/svg10.dtd">
<svg version="1.0" xmlns="http://www.w3.org/2000/svg"
 width="502.000000pt" height="1080.000000pt" viewBox="0 0 502.000000 1080.000000"
 preserveAspectRatio="xMidYMid meet">

<g transform="translate(0.000000,1080.000000) scale(0.100000,-0.100000)"
fill="#000000" stroke="none">
<path d="M2860 10783 c-35 -6 -264 -77 -385 -120 -160 -56 -322 -140 -379
-197 -104 -103 -156 -169 -167 -210 -8 -30 -8 -91 0 -231 6 -104 13 -226 16
-271 l5 -80 -64 -22 c-35 -12 -71 -22 -79 -22 -9 0 -27 -4 -42 -10 -22 -8 -24
-13 -15 -30 6 -11 16 -20 23 -20 7 0 29 -13 49 -28 l36 -28 -46 -51 c-111
-119 -124 -135 -117 -141 4 -4 68 -7 143 -7 l137 0 6 -52 c11 -90 18 -107 35
-92 17 14 14 19 47 -64 15 -38 24 -73 21 -79 -4 -6 -8 -34 -10 -62 -2 -28 -6
-84 -9 -125 -3 -40 -2 -71 2 -69 64 32 145 68 154 68 7 0 10 -13 7 -35 -2 -19
-2 -35 2 -35 8 0 143 70 156 81 8 6 22 2 40 -14 16 -12 49 -35 72 -51 24 -15
42 -30 39 -32 -3 -3 -27 -11 -53 -19 -27 -7 -74 -23 -104 -34 -30 -12 -63 -21
-72 -21 -23 0 -24 -50 -4 -88 20 -37 43 -117 54 -183 l8 -55 -55 -13 c-88 -20
-287 -78 -310 -90 -11 -7 -21 -20 -21 -31 0 -14 -11 -22 -42 -30 -62 -16 -251
-105 -335 -157 -104 -64 -105 -66 -109 -260 -1 -89 -5 -167 -8 -171 -3 -5 -10
-54 -15 -109 -8 -90 -56 -265 -81 -298 -4 -5 -13 -28 -20 -49 -7 -22 -27 -72
-45 -111 -50 -110 -50 -115 15 -148 30 -15 56 -32 58 -37 4 -10 -56 -169 -89
-238 -12 -24 -27 -46 -35 -49 -8 -3 -51 13 -96 35 -46 23 -99 44 -118 48 -49
9 -90 41 -90 69 0 25 -67 234 -98 305 -25 58 -41 71 -90 73 -43 1 -43 2 -68
97 -3 14 -18 37 -32 53 -21 22 -34 27 -73 27 -41 0 -49 3 -54 23 -24 76 -150
107 -175 43 -8 -21 -14 -24 -48 -19 -31 4 -44 0 -65 -18 -24 -21 -28 -34 -33
-94 -5 -65 -22 -165 -29 -165 -1 0 -19 7 -40 16 -38 16 -80 13 -122 -8 -44
-22 -20 -120 42 -178 15 -14 33 -37 41 -52 13 -25 13 -32 -1 -58 -8 -16 -15
-35 -15 -42 0 -7 23 -42 50 -76 27 -35 59 -90 71 -122 26 -71 48 -96 97 -109
152 -42 196 -57 267 -91 65 -31 85 -46 102 -77 31 -56 57 -76 168 -131 35 -18
72 -27 124 -30 62 -4 89 -12 160 -48 47 -23 111 -63 141 -89 30 -25 64 -48 76
-51 17 -4 25 -24 47 -117 14 -62 33 -152 42 -202 17 -91 32 -148 58 -220 18
-47 63 -75 123 -75 45 0 54 -10 54 -59 0 -37 47 -177 75 -227 13 -22 40 -52
59 -65 20 -13 36 -31 36 -39 0 -38 -34 -220 -70 -370 -21 -91 -44 -194 -50
-230 -12 -73 -33 -176 -60 -295 -10 -44 -23 -111 -30 -150 -7 -38 -22 -106
-32 -150 -21 -85 -50 -223 -103 -486 -46 -229 -82 -326 -192 -516 -29 -51 -79
-137 -110 -190 -31 -54 -61 -116 -67 -138 -13 -45 -13 -40 -2 -290 8 -196 0
-255 -57 -391 -13 -32 -30 -77 -37 -99 -7 -22 -39 -95 -72 -163 -32 -67 -63
-145 -68 -174 -10 -50 7 -295 31 -443 5 -33 12 -100 15 -150 6 -99 18 -141 44
-155 10 -5 27 -24 37 -43 18 -30 19 -38 7 -84 -7 -29 -15 -89 -16 -135 -3 -77
-1 -86 22 -115 32 -39 99 -73 170 -84 166 -28 480 -27 655 0 157 24 272 91
291 168 15 59 -4 136 -62 251 l-57 113 44 83 43 84 -13 68 c-8 38 -16 99 -18
136 l-5 67 84 86 c46 48 87 94 92 102 13 24 1 98 -34 202 -28 84 -31 107 -31
212 -1 65 2 123 6 129 3 5 10 65 15 132 13 185 30 339 42 378 6 19 32 58 59
86 32 34 49 63 52 85 3 19 13 102 22 184 22 205 35 274 56 315 20 40 101 237
132 320 11 30 34 96 52 145 17 50 57 158 88 240 59 159 90 258 156 500 23 83
50 179 61 215 11 36 29 110 40 165 37 178 74 275 105 275 19 0 25 -24 25 -98
0 -67 9 -150 35 -337 13 -91 47 -600 74 -1105 l11 -194 -44 -41 c-55 -50 -63
-79 -42 -153 33 -122 46 -361 27 -527 -10 -81 -56 -213 -106 -302 -40 -72 -42
-135 -7 -239 17 -49 36 -115 42 -147 7 -33 20 -78 31 -100 24 -53 24 -136 2
-253 -9 -49 -17 -110 -18 -135 0 -42 5 -53 54 -109 l53 -61 -12 -94 c-16 -118
-8 -174 28 -207 52 -48 78 -57 219 -78 139 -19 321 -61 432 -99 31 -10 115
-35 186 -56 l130 -37 211 0 c324 2 495 35 531 106 9 17 18 63 21 101 3 60 1
73 -16 91 -11 11 -23 36 -27 54 -4 19 -17 47 -29 63 -37 51 -161 114 -271 137
-64 14 -189 64 -227 92 -25 17 -29 25 -24 51 3 17 21 53 40 81 81 123 80 130
-32 237 -101 97 -232 263 -232 294 0 12 5 48 11 80 6 36 12 251 14 540 2 266
8 509 14 545 5 36 17 130 26 210 9 80 22 181 30 225 8 44 14 89 14 100 -1 11
2 83 6 160 4 77 8 280 9 450 l1 310 32 80 c17 44 41 109 53 145 12 36 41 122
66 193 49 141 56 212 28 292 -14 42 -14 52 -1 98 49 169 49 208 7 284 l-31 54
11 167 c6 92 9 223 6 292 -21 438 -11 394 -119 551 -68 100 -133 238 -124 262
3 9 28 17 61 21 55 7 56 8 56 41 0 39 -62 230 -120 370 -79 190 -83 203 -81
300 1 82 -1 93 -24 125 -28 37 -32 88 -14 153 13 49 29 229 20 244 -10 19 -80
63 -166 105 -48 23 -83 46 -87 59 -10 26 -97 65 -200 90 -45 11 -84 21 -85 23
-2 2 6 28 18 57 37 93 40 109 24 140 -20 37 -122 94 -264 144 -61 22 -111 42
-111 45 0 3 33 18 73 34 105 43 200 91 219 112 9 11 19 37 23 59 16 102 30
142 58 174 32 38 77 126 77 154 0 21 10 22 36 2 30 -23 34 -18 34 35 0 28 2
50 5 50 3 0 32 -14 64 -30 33 -17 76 -34 96 -37 36 -6 37 -5 30 18 -4 13 -23
57 -41 97 -29 63 -31 72 -15 72 9 0 25 6 34 13 17 11 16 16 -14 60 -17 26 -60
73 -96 105 -50 44 -63 61 -58 77 13 42 44 405 45 511 0 151 -3 164 -66 228
-97 99 -242 185 -529 315 -136 61 -250 82 -355 64z m280 -60 c239 -102 492
-244 568 -320 60 -61 68 -77 17 -39 -22 17 -35 22 -36 14 0 -10 -2 -10 -6 0
-2 6 -11 12 -19 12 -8 0 -14 5 -14 11 0 6 -9 8 -21 4 -16 -5 -19 -4 -14 5 5 8
4 11 -2 7 -5 -3 -34 1 -64 10 -57 16 -161 45 -244 68 -27 7 -82 18 -121 24
-61 9 -77 16 -106 45 -31 31 -40 34 -116 41 -74 6 -82 9 -82 28 0 11 -3 17 -6
14 -4 -3 -15 -2 -25 4 -13 6 -19 6 -19 -1 0 -5 -19 -10 -42 -9 l-43 1 40 14
40 14 -40 -5 c-22 -2 -41 -9 -43 -15 -7 -19 -31 -10 -34 13 -3 19 -8 22 -37
19 -19 -1 -39 -6 -45 -11 -6 -5 -27 -12 -46 -16 -19 -4 -46 -12 -60 -18 -66
-27 -121 -43 -125 -37 -2 3 105 43 238 88 238 81 243 82 327 79 73 -3 99 -9
180 -44z m-440 -59 c0 -2 -7 -4 -15 -4 -8 0 -15 4 -15 10 0 5 7 7 15 4 8 -4
15 -8 15 -10z m-307 -78 c10 -8 15 -20 11 -30 -5 -12 0 -16 21 -16 14 0 33 -7
41 -15 14 -13 11 -15 -21 -15 -35 0 -65 18 -65 38 0 15 -40 22 -64 11 -66 -29
-161 -88 -158 -99 4 -18 -29 -52 -45 -46 -13 5 -20 0 -69 -56 -17 -19 -37 -38
-45 -43 -20 -12 79 102 125 145 31 28 227 139 246 139 3 0 13 -6 23 -13z m67
10 c0 -2 -7 -7 -16 -10 -8 -3 -12 -2 -9 4 6 10 25 14 25 6z m43 -38 c-6 -32
-23 -38 -23 -8 0 11 -6 20 -12 21 -7 1 -2 4 12 8 31 10 29 11 23 -21z m54 6
c-3 -3 -12 -4 -19 -1 -8 3 -5 6 6 6 11 1 17 -2 13 -5z m-277 -54 c-14 -10 -27
-17 -29 -14 -6 5 31 33 44 33 6 1 -1 -8 -15 -19z m36 -8 c0 -11 -9 -18 -23
-18 l-23 -2 23 19 c12 10 22 18 22 19 1 0 1 -8 1 -18z m965 -178 c17 -8 37
-13 45 -10 8 3 12 2 9 -4 -3 -5 7 -16 22 -24 38 -19 108 -76 95 -76 -6 0 -14
4 -17 10 -11 18 -130 83 -185 101 -42 14 -48 18 -27 18 15 1 42 -6 58 -15z
m28 -61 c77 -39 150 -114 192 -198 31 -64 34 -77 34 -161 0 -51 -3 -95 -7 -99
-4 -4 -43 13 -86 39 -43 25 -86 46 -95 46 -11 0 -17 8 -17 24 0 64 -67 147
-130 161 -58 13 -113 -3 -166 -46 -50 -42 -73 -72 -74 -99 0 -8 -4 -21 -9 -28
-9 -15 -210 -64 -224 -55 -6 3 -7 45 -5 97 5 78 10 99 37 151 38 70 55 89 107
121 109 66 179 85 298 79 71 -3 99 -9 145 -32z m468 15 c-3 -8 -6 -5 -6 6 -1
11 2 17 5 13 3 -3 4 -12 1 -19z m-247 -176 c0 -4 -9 7 -20 23 -11 17 -20 35
-20 40 0 6 9 -5 20 -23 11 -18 20 -36 20 -40z m247 6 c-3 -7 -5 -2 -5 12 0 14
2 19 5 13 2 -7 2 -19 0 -25z m-589 -65 c-10 -2 -26 -2 -35 0 -10 3 -2 5 17 5
19 0 27 -2 18 -5z m369 -25 c-3 -8 -6 -5 -6 6 -1 11 2 17 5 13 3 -3 4 -12 1
-19z m-247 -95 c0 -7 -4 -13 -10 -13 -5 0 -9 3 -9 8 3 19 -3 33 -27 64 -19 24
-17 23 10 -6 20 -22 36 -45 36 -53z m261 30 c2 -23 0 -45 -4 -49 -4 -4 -7 17
-7 46 0 62 7 64 11 3z m-96 -154 c198 -100 287 -164 394 -288 63 -73 59 -95
-10 -56 -92 51 -320 166 -368 184 -27 10 -79 24 -115 32 -60 12 -76 10 -208
-15 -79 -15 -216 -45 -306 -67 -156 -38 -164 -39 -210 -25 -111 34 -191 56
-204 56 -25 0 -124 68 -108 74 8 3 53 19 100 36 103 37 438 122 570 144 231
39 241 37 465 -75z m92 29 c-3 -7 -5 -2 -5 12 0 14 2 19 5 13 2 -7 2 -19 0
-25z m-1590 -140 c-3 -8 -6 -5 -6 6 -1 11 2 17 5 13 3 -3 4 -12 1 -19z m1763
-8 c0 -5 -2 -10 -4 -10 -3 0 -8 5 -11 10 -3 6 -1 10 4 10 6 0 11 -4 11 -10z
m-1520 -34 c0 -7 10 -36 21 -64 23 -55 21 -83 -8 -120 -21 -27 -169 -206 -198
-240 l-19 -22 -13 77 c-8 42 -15 78 -17 80 -2 2 -14 -1 -28 -6 -40 -15 -228
-25 -228 -12 0 11 167 193 242 263 35 33 46 37 121 46 120 14 127 14 127 -2z
m1203 -7 c44 -12 47 -23 10 -38 -32 -13 -115 -72 -152 -109 -24 -24 -25 -32
-29 -157 -4 -128 -3 -132 21 -160 31 -36 44 -28 81 51 29 61 35 159 14 241
-10 43 -10 47 13 64 13 10 27 19 31 19 10 0 27 -58 37 -125 l9 -60 1 55 c0 30
-4 75 -10 99 -8 37 -7 45 8 57 10 7 32 14 49 14 26 0 34 -6 44 -30 15 -36 33
-41 20 -4 -9 23 -8 25 12 19 13 -4 44 -19 69 -33 l46 -25 -42 -161 c-23 -89
-50 -186 -59 -216 -9 -30 -25 -97 -36 -148 -30 -148 -43 -175 -98 -199 -26
-12 -99 -44 -162 -73 -282 -128 -316 -142 -348 -141 -33 0 -334 142 -384 180
-13 10 -44 29 -70 44 -49 29 -178 167 -178 192 0 19 -10 18 -34 0 -38 -29
-119 -10 -163 37 -24 26 -50 84 -62 140 -8 36 -6 40 47 98 53 59 56 61 72 43
21 -22 39 -86 19 -65 -24 23 -30 12 -10 -17 12 -16 21 -35 21 -43 0 -20 49
-116 50 -97 0 9 -7 33 -15 52 -8 20 -15 53 -15 74 l0 38 18 -35 c31 -63 37
-38 34 138 l-4 167 48 48 c53 52 80 61 68 25 -6 -20 -5 -21 9 -10 12 10 25 11
56 2 48 -13 58 -25 38 -48 -8 -9 -17 -27 -21 -39 -3 -13 -9 -32 -12 -43 -9
-34 11 -22 24 14 7 19 22 46 33 61 18 22 26 25 53 19 46 -10 48 -13 27 -42
-29 -41 -37 -88 -35 -194 3 -111 17 -152 54 -156 59 -7 99 143 75 282 -4 23
-2 27 11 22 12 -5 15 -2 9 11 -25 61 -19 64 64 33 61 -22 78 -18 42 11 -13 11
-22 21 -20 22 9 6 190 51 294 73 61 12 128 27 150 33 42 10 114 6 178 -10z
m-1599 -43 c-3 -8 -13 -12 -25 -9 -23 6 -15 23 11 23 12 0 17 -5 14 -14z m853
-160 c6 -35 4 -38 -18 -34 -19 2 -25 10 -27 37 -2 20 2 37 10 42 18 11 28 -1
35 -45z m678 4 c7 -33 1 -50 -20 -50 -15 0 -28 41 -19 64 10 26 32 18 39 -14z
m497 -50 c17 0 33 -27 68 -116 l9 -22 -52 20 c-58 22 -79 36 -72 48 3 5 1 11
-4 14 -5 3 -14 20 -20 37 l-11 31 31 -6 c17 -3 40 -6 51 -6z m-1243 -134 c1
10 51 8 51 -2 0 -14 -26 -54 -38 -59 -20 -7 -20 -6 -27 45 -4 33 -3 39 4 25 5
-11 10 -15 10 -9z m719 -14 c8 8 9 3 3 -18 -13 -48 -60 -42 -61 8 0 14 4 16
24 8 15 -5 27 -5 34 2z m352 -24 c0 -15 -48 -116 -59 -122 -8 -5 15 109 25
126 8 12 34 9 34 -4z m-1580 -398 c-19 -12 -19 -10 -13 25 6 29 6 29 16 6 8
-17 7 -25 -3 -31z m498 -123 c29 -82 9 -113 -59 -93 -75 23 -165 68 -149 74
32 12 166 50 180 51 9 1 21 -13 28 -32z m303 -127 c10 0 21 -5 25 -11 4 -7 23
-9 49 -6 50 7 55 0 55 -97 0 -94 27 -138 105 -175 57 -26 65 -33 70 -64 10
-51 4 -69 -34 -94 -38 -25 -154 -63 -194 -63 -22 0 -28 6 -37 43 -7 23 -20 72
-30 108 -10 37 -26 114 -35 173 -12 71 -24 111 -35 121 -10 9 -47 23 -82 31
-133 31 -128 27 -128 98 l0 63 127 -63 c69 -35 134 -64 144 -64z m-484 59
c114 -45 337 -119 360 -119 35 0 51 -33 77 -150 42 -192 83 -334 125 -435 65
-159 131 -349 140 -405 11 -67 26 -335 36 -640 5 -165 21 -368 46 -610 6 -58
12 -238 13 -400 l1 -295 -124 -3 -123 -3 6 48 c22 183 13 1065 -13 1278 -12
94 -28 267 -42 455 -21 277 -17 265 -176 508 -117 178 -220 320 -284 387 -55
60 -74 95 -82 155 -4 25 -20 87 -37 139 -30 91 -32 121 -11 121 6 0 45 -14 88
-31z m958 -30 c123 -48 206 -97 223 -132 11 -23 8 -38 -39 -149 -64 -155 -180
-371 -275 -513 -66 -98 -136 -185 -149 -185 -6 0 4 58 16 90 28 77 79 376 79
464 0 76 -13 97 -82 131 -80 40 -89 60 -86 182 l3 97 65 33 c79 39 101 37 245
-18z m-999 -416 c-10 -203 -23 -428 -25 -429 0 -1 -57 -2 -126 -3 -69 0 -141
-3 -159 -7 l-34 -6 -7 104 c-3 56 -10 150 -16 208 -15 173 -16 168 35 191 57
25 261 77 305 78 l34 1 -7 -137z m1287 56 c108 -28 177 -63 177 -90 0 -11 6
-32 14 -47 16 -32 30 -118 51 -332 21 -213 13 -518 -21 -756 -15 -107 -44
-247 -50 -241 -3 3 -53 195 -60 232 -2 11 -12 88 -24 170 -20 145 -45 309 -76
485 -8 47 -26 126 -39 175 -13 50 -34 131 -46 180 -12 50 -30 107 -41 128 -18
37 -19 39 -1 77 10 22 21 40 26 40 4 0 45 -10 90 -21z m-132 -121 c12 -21 46
-138 89 -304 10 -38 24 -117 30 -175 6 -57 16 -121 21 -141 5 -20 12 -56 15
-80 3 -24 12 -92 21 -153 9 -60 17 -121 19 -135 1 -14 7 -49 13 -79 6 -30 9
-56 6 -59 -5 -6 -11 9 -25 63 l-10 40 5 -45 c4 -34 3 -41 -6 -30 -9 12 -10 10
-6 -10 l6 -25 -16 23 c-12 16 -25 22 -54 22 -22 0 -39 -4 -39 -10 0 -5 -7 -10
-15 -10 -8 0 -15 -6 -15 -14 0 -18 -40 -32 -49 -18 -3 6 -18 9 -34 9 -26 -2
-35 -11 -19 -20 4 -2 2 -2 -5 -1 -7 2 -15 -1 -18 -6 -12 -19 -24 -9 -28 23 -4
31 -4 31 -7 -8 -3 -38 -4 -38 -10 15 -7 54 -7 53 -10 -30 l-3 -85 -8 70 c-4
39 -12 156 -18 260 -6 105 -16 218 -21 252 -6 35 -10 131 -9 214 l1 151 37 62
c20 33 61 105 91 159 29 53 55 97 56 97 2 0 9 -10 15 -22z m-212 -677 c6 -40
16 -164 21 -275 16 -332 29 -514 45 -646 8 -69 22 -195 30 -280 8 -85 21 -209
29 -275 7 -66 17 -179 21 -252 l7 -131 -54 -7 c-29 -3 -80 -5 -113 -3 l-60 3
-6 320 c-6 272 -23 555 -45 735 -3 25 -9 140 -14 255 -5 116 -16 320 -24 453
l-15 244 52 61 c29 34 63 78 77 97 l25 35 7 -130 c3 -71 11 -163 17 -204z
m-925 303 c3 -8 2 -12 -4 -9 -6 3 -10 10 -10 16 0 14 7 11 14 -7z m-232 -26
c3 -7 2 -38 -1 -68 -6 -52 -8 -55 -41 -65 -52 -15 -58 -21 -66 -71 -7 -48 10
-203 32 -298 16 -68 61 -140 90 -144 26 -4 91 61 114 113 22 53 38 141 44 246
6 110 -11 151 -64 159 l-35 5 -3 69 -3 69 71 -5 c56 -4 76 -10 97 -29 25 -24
25 -24 19 -144 -4 -66 -11 -149 -17 -185 -5 -36 -12 -87 -16 -115 -7 -56 -90
-240 -125 -277 -33 -34 -69 -58 -90 -58 -10 0 -36 18 -57 39 -73 73 -106 221
-116 516 -7 211 -4 224 65 242 60 15 97 16 102 1z m293 -42 c10 -23 10 -56 4
-136 -5 -58 -10 -140 -10 -184 -1 -43 -5 -73 -9 -66 -4 6 -6 -12 -4 -42 3 -39
1 -47 -5 -28 -8 22 -9 20 -10 -17 -1 -23 -6 -43 -11 -45 -6 -2 -12 -12 -14
-23 -4 -18 -26 -62 -61 -125 -9 -16 -15 -19 -15 -9 0 8 4 19 9 25 22 22 64
145 82 235 10 53 23 166 29 250 8 127 8 157 -4 181 -8 15 -10 25 -4 22 5 -4
16 -21 23 -38z m-245 4 c0 -11 -7 -20 -15 -20 -15 0 -21 21 -8 33 12 13 23 7
23 -13z m298 -52 c7 -7 12 -34 12 -60 0 -44 -2 -48 -25 -48 -24 0 -25 2 -21
53 2 28 5 55 5 60 1 11 15 9 29 -5z m49 -24 c-3 -3 -12 -4 -19 -1 -8 3 -5 6 6
6 11 1 17 -2 13 -5z m-258 -43 c9 -6 13 -31 13 -82 -1 -129 1 -121 -28 -117
-22 2 -29 11 -39 46 -16 52 -31 72 -56 72 -23 0 -45 -33 -53 -82 -7 -39 -22
-48 -44 -26 -13 13 -17 155 -4 175 12 20 183 31 211 14z m580 -88 c6 -38 15
-133 21 -213 5 -80 12 -170 15 -200 2 -30 7 -84 9 -120 7 -92 -8 -20 -26 125
-7 61 -14 98 -16 83 -5 -43 -22 -33 -22 12 0 38 -2 40 -30 40 -29 0 -30 2 -30
43 0 37 -5 47 -40 77 -37 32 -40 38 -40 87 l0 53 39 0 c23 0 41 5 44 13 2 6 2
1 0 -11 -2 -15 0 -21 7 -17 5 3 10 12 10 20 0 8 5 17 10 20 7 4 8 -3 4 -21 -6
-22 -4 -26 9 -21 9 3 18 1 21 -6 8 -21 7 16 -2 48 -8 27 -6 55 3 55 2 0 8 -30
14 -67z m-409 -23 l-11 -25 6 25 c2 14 5 34 6 45 2 19 2 19 6 0 2 -12 -1 -32
-7 -45z m-253 -21 c24 -47 7 -163 -27 -184 -27 -16 -41 121 -19 184 13 36 28
36 46 0z m490 -51 c-2 -13 -4 -3 -4 22 0 25 2 35 4 23 2 -13 2 -33 0 -45z
m-228 -26 c1 -7 -3 -10 -9 -7 -5 3 -10 21 -9 38 1 31 1 31 9 7 4 -14 8 -31 9
-38z m-1963 -25 c27 -23 27 -25 26 -143 -1 -65 -5 -182 -8 -260 -6 -128 -5
-147 15 -203 11 -33 21 -77 21 -96 0 -19 5 -35 11 -35 12 0 5 74 -16 156 -9
35 -12 104 -9 230 2 98 4 185 4 192 0 7 5 10 10 7 6 -3 10 -1 10 4 0 6 -5 11
-11 11 -19 0 -5 52 16 60 29 10 83 -7 99 -33 18 -27 36 -132 36 -213 0 -76 44
-324 64 -361 8 -15 15 -25 16 -22 0 12 -22 127 -37 189 -8 36 -16 105 -17 153
-1 77 2 90 18 103 41 30 85 -8 111 -96 9 -30 25 -80 35 -110 10 -30 23 -79 29
-108 14 -69 25 -87 78 -142 54 -54 78 -99 91 -169 16 -89 -15 -166 -86 -214
-33 -21 -48 -25 -105 -23 -44 2 -72 8 -84 18 -17 15 -167 93 -265 137 -25 11
-89 32 -142 45 -83 21 -100 29 -130 62 -19 21 -38 49 -41 62 -7 28 -74 131
-99 151 -22 18 -20 42 8 120 13 36 27 86 30 111 19 128 82 354 104 376 23 23
61 17 68 -10 11 -47 2 -61 -46 -67 l-45 -6 48 -1 49 -2 -6 -37 c-3 -21 -8 -60
-12 -88 -4 -27 -13 -67 -20 -87 -11 -32 -11 -50 1 -112 8 -41 17 -111 21 -156
4 -44 11 -83 15 -86 10 -6 23 61 14 75 -3 6 -15 61 -26 122 l-19 111 22 72
c14 47 22 99 22 154 1 61 4 81 14 77 17 -6 15 5 -4 26 -15 17 -14 20 6 48 27
39 76 42 116 8z m1614 -1 c6 -8 11 -23 10 -33 -3 -29 10 -58 31 -72 31 -19 65
7 73 57 5 36 20 52 47 52 17 0 9 -18 -11 -23 -13 -3 -20 -14 -20 -29 0 -12 -7
-32 -15 -42 -17 -22 -19 -36 -7 -36 9 0 32 59 32 83 0 9 5 17 10 17 29 0 -20
-127 -66 -171 -28 -27 -38 -31 -52 -23 -24 15 -52 97 -59 171 -6 64 2 78 27
49z m350 -32 c0 -10 12 -14 40 -14 l40 0 0 -80 c0 -47 4 -80 10 -80 6 0 10
-15 9 -32 -1 -31 -1 -32 -9 -8 -8 24 -8 23 -9 -7 -1 -32 0 -33 42 -35 l42 -1
-45 -6 c-25 -4 -53 -3 -62 1 -9 4 -26 8 -37 8 -15 0 -21 6 -21 24 0 13 -6 29
-14 36 -8 6 -12 18 -9 26 3 8 -1 14 -11 14 -20 0 -21 27 -1 46 13 14 16 13 24
-8 8 -19 10 -20 10 -4 1 10 -6 24 -15 30 -12 9 -14 22 -8 64 3 28 10 49 15 46
5 -3 9 -12 9 -20z m401 -224 c5 0 9 -12 9 -26 0 -23 -2 -24 -15 -10 -8 8 -14
30 -14 48 1 23 3 26 6 11 2 -13 9 -23 14 -23z m-481 0 c0 -5 -5 -10 -11 -10
-5 0 -7 5 -4 10 3 6 8 10 11 10 2 0 4 -4 4 -10z m-2222 -43 c7 -8 8 -28 2 -57
-5 -25 -12 -66 -15 -92 -3 -27 -10 -48 -14 -48 -9 0 -73 67 -95 100 -23 35
-20 76 6 94 27 19 101 21 116 3z m1938 -103 c33 -26 44 -29 72 -23 18 4 44 17
58 30 13 12 26 20 29 18 2 -3 -7 -49 -20 -103 -13 -54 -31 -139 -40 -190 -17
-97 -18 -101 -90 -331 -25 -82 -47 -168 -47 -190 l-1 -40 -14 34 c-31 73 -43
196 -48 466 -2 148 -2 309 2 357 l6 87 27 -42 c15 -24 45 -57 66 -73z m781 54
c-3 -8 -6 -5 -6 6 -1 11 2 17 5 13 3 -3 4 -12 1 -19z m728 12 c-3 -5 -10 -10
-16 -10 -5 0 -9 5 -9 10 0 6 7 10 16 10 8 0 12 -4 9 -10z m-2022 -125 c38 -9
85 -22 105 -29 20 -7 71 -23 112 -36 41 -13 79 -27 83 -30 5 -4 1 -25 -8 -46
-22 -52 -48 -132 -75 -229 -12 -44 -26 -89 -30 -100 -5 -11 -25 -81 -46 -155
-42 -154 -51 -175 -91 -211 -47 -43 -175 -111 -219 -116 -40 -5 -61 2 -125 45
-14 9 -63 39 -108 66 -45 27 -84 53 -87 58 -3 4 6 12 20 18 31 12 81 63 111
115 46 79 49 200 7 286 l-20 39 89 -1 c49 0 92 -5 95 -10 3 -5 15 -9 26 -9 21
0 21 0 2 21 -16 17 -26 20 -61 15 -60 -8 -76 0 -58 27 8 12 18 40 24 62 5 22
24 76 41 120 18 44 36 92 42 106 9 24 12 25 56 18 26 -4 78 -15 115 -24z
m2593 -152 c4 -21 15 -50 25 -65 11 -14 19 -30 19 -36 0 -5 24 -44 53 -87 115
-171 108 -156 119 -273 11 -122 16 -707 7 -717 -4 -3 -34 7 -67 24 -34 17 -90
36 -126 43 -55 11 -66 16 -66 33 0 19 -68 226 -125 385 -38 106 -98 308 -124
420 -12 52 -31 127 -42 165 -10 39 -19 75 -19 81 0 7 58 20 143 33 78 13 149
24 157 26 35 7 39 3 46 -32z m-2212 -90 c3 -42 6 -126 6 -187 0 -94 -3 -114
-18 -127 -9 -8 -26 -26 -37 -39 -40 -49 -175 -121 -175 -92 0 4 18 13 41 20
39 12 139 88 139 105 0 5 -4 6 -8 3 -5 -3 -9 1 -9 9 0 11 4 12 14 3 10 -8 17
-7 28 8 12 15 14 45 10 154 -6 162 -7 170 -17 170 -4 0 -8 5 -8 11 0 5 5 7 10
4 6 -3 10 -2 10 4 0 11 -39 26 -47 17 -7 -7 -16 -63 -16 -99 0 -17 -3 -24 -7
-17 -12 19 -22 -5 -24 -60 -2 -32 -9 -57 -21 -70 -14 -15 -19 -35 -19 -68 1
-27 -2 -39 -5 -28 -5 12 -13 -8 -26 -63 -11 -45 -23 -81 -27 -81 -10 0 -10 0
6 62 41 149 60 204 72 211 8 4 14 13 14 20 0 7 -4 6 -11 -3 -17 -25 2 59 25
110 11 25 19 51 17 58 -4 22 19 42 49 42 27 0 27 -1 34 -77z m-37 -25 c-3 -8
-6 -5 -6 6 -1 11 2 17 5 13 3 -3 4 -12 1 -19z m-827 -71 c0 -6 -11 4 -25 23
-14 19 -25 36 -25 39 1 11 50 -50 50 -62z m847 -24 c-3 -10 -5 -4 -5 12 0 17
2 24 5 18 2 -7 2 -21 0 -30z m-753 -3 c-6 -6 -10 -3 -10 10 0 13 4 16 10 10 7
-7 7 -13 0 -20z m-76 -50 l0 -25 -8 25 c-4 14 -8 34 -8 45 l-1 20 9 -20 c5
-11 8 -31 8 -45z m122 -80 c0 -25 -4 -50 -8 -57 -4 -6 -7 11 -6 39 1 28 -4 69
-12 91 -19 54 -16 60 7 12 10 -22 19 -60 19 -85z m691 35 c5 3 6 -1 2 -10 -5
-13 -7 -14 -14 -3 -5 7 -8 22 -7 33 1 17 1 17 5 -3 2 -12 9 -20 14 -17z m-804
-52 c-3 -10 -5 -4 -5 12 0 17 2 24 5 18 2 -7 2 -21 0 -30z m813 6 c-7 -11 -14
-18 -17 -15 -3 3 0 12 7 21 18 21 23 19 10 -6z m-816 -37 c-6 -4 -14 -14 -17
-22 -4 -10 -6 -8 -6 8 -1 15 5 22 17 22 10 0 13 -3 6 -8z m736 -22 c0 -5 -5
-10 -11 -10 -5 0 -7 5 -4 10 3 6 8 10 11 10 2 0 4 -4 4 -10z m-630 -23 c0 -7
-7 -22 -15 -33 -13 -17 -14 -16 -4 14 11 33 19 41 19 19z m561 -44 c-12 -20
-14 -14 -5 12 4 9 9 14 11 11 3 -2 0 -13 -6 -23z m33 -5 c-3 -4 -11 -8 -17 -7
-9 0 -9 2 0 5 7 3 9 13 6 22 -4 14 -3 14 5 2 6 -8 8 -18 6 -22z m182 -75 c16
-49 29 -76 42 -90 14 -13 14 -28 -2 -142 -10 -69 -22 -173 -27 -229 -5 -57
-16 -129 -24 -160 -8 -31 -15 -66 -15 -78 0 -11 -5 -35 -11 -52 -13 -38 -61
-57 -127 -49 -24 3 -40 2 -34 -2 19 -11 -108 -36 -185 -36 -97 0 -104 8 -138
160 -15 66 -35 157 -45 202 -11 45 -22 109 -26 142 -5 51 -4 61 9 61 8 0 64
25 123 56 59 31 140 65 179 76 88 24 179 72 224 119 42 42 50 45 57 22z m2003
-193 c35 -96 67 -184 71 -195 7 -18 29 -119 33 -154 2 -12 -35 -15 -213 -17
-128 -1 -182 1 -134 5 97 8 145 32 121 59 -13 15 -14 20 -2 42 8 14 14 33 15
43 0 13 9 17 40 17 23 0 40 5 40 11 0 6 9 1 21 -12 11 -13 18 -19 15 -14 -2 6
-1 17 5 25 6 10 9 11 9 3 0 -7 6 -13 14 -13 14 0 27 -55 19 -77 -7 -18 -23
-16 -23 2 0 8 -5 15 -11 15 -6 0 -9 -7 -5 -15 6 -16 -14 -16 -26 0 -5 6 -8 5
-8 -2 0 -9 -16 -13 -45 -13 -27 0 -45 -5 -45 -11 0 -8 22 -10 75 -5 108 10
108 10 100 65 -4 25 -13 57 -20 71 -7 14 -18 49 -26 78 -8 34 -16 48 -21 40
-5 -8 -6 -1 -2 15 5 21 3 27 -7 25 -9 -2 -15 8 -17 27 -2 17 -12 57 -23 89
-18 55 -24 85 -15 75 2 -2 31 -83 65 -179z m-1912 98 c-3 -7 -5 -2 -5 12 0 14
2 19 5 13 2 -7 2 -19 0 -25z m-20 -200 c-2 -13 -4 -5 -4 17 -1 22 1 32 4 23 2
-10 2 -28 0 -40z m1933 23 c0 -5 -7 -12 -16 -15 -14 -5 -15 -4 -4 9 14 17 20
19 20 6z m6 -48 c-4 -4 -12 -1 -19 7 -9 10 -9 11 1 6 7 -4 12 -2 13 6 0 11 2
11 6 0 3 -7 2 -16 -1 -19z m-1949 -65 c-3 -7 -5 -2 -5 12 0 14 2 19 5 13 2 -7
2 -19 0 -25z m-10 -80 c-3 -7 -5 -2 -5 12 0 14 2 19 5 13 2 -7 2 -19 0 -25z
m1420 0 c-3 -7 -5 -2 -5 12 0 14 2 19 5 13 2 -7 2 -19 0 -25z m-1420 -70 c-2
-13 -4 -5 -4 17 -1 22 1 32 4 23 2 -10 2 -28 0 -40z m863 -28 c0 -18 -6 -20
-52 -18 l-53 2 48 3 c33 3 47 8 47 19 0 7 2 14 5 14 3 0 5 -9 5 -20z m703 -7
c-7 -2 -19 -2 -25 0 -7 3 -2 5 12 5 14 0 19 -2 13 -5z m-1553 -13 c8 -5 11
-10 5 -10 -5 0 -17 5 -25 10 -8 5 -10 10 -5 10 6 0 17 -5 25 -10z m163 -7 c-7
-2 -21 -2 -30 0 -10 3 -4 5 12 5 17 0 24 -2 18 -5z m60 0 c-7 -2 -21 -2 -30 0
-10 3 -4 5 12 5 17 0 24 -2 18 -5z m44 1 c-3 -3 -12 -4 -19 -1 -8 3 -5 6 6 6
11 1 17 -2 13 -5z m106 -1 c-13 -2 -33 -2 -45 0 -13 2 -3 4 22 4 25 0 35 -2
23 -4z m1918 -60 c13 -16 12 -17 -3 -4 -10 7 -18 15 -18 17 0 8 8 3 21 -13z
m-211 -57 c0 -2 6 -39 14 -82 8 -44 17 -126 21 -183 9 -131 24 -176 24 -71 0
41 -4 107 -9 145 -5 39 -12 95 -15 125 l-7 55 34 -52 c18 -28 58 -89 89 -135
31 -46 73 -119 94 -163 35 -76 37 -84 31 -155 -7 -98 -95 -401 -144 -496 l-19
-36 -17 164 c-17 169 -39 284 -30 158 25 -329 30 -737 14 -1090 -9 -220 -21
-344 -55 -600 -29 -219 -36 -347 -40 -750 -2 -228 -6 -456 -10 -507 -6 -79 -4
-103 16 -170 22 -78 86 -219 95 -210 2 2 -4 28 -15 58 -23 65 -50 159 -46 159
1 0 14 -17 28 -38 14 -21 71 -84 126 -140 56 -55 101 -108 101 -118 0 -9 -18
-49 -40 -89 -22 -40 -40 -84 -40 -99 0 -36 -23 -42 -59 -17 -48 34 -111 53
-155 45 -58 -9 -72 -16 -461 -205 -184 -89 -217 -95 -307 -50 -63 31 -169 126
-208 186 -24 36 -25 71 -4 167 9 40 16 109 17 153 2 75 -2 91 -62 259 -72 201
-77 244 -40 324 12 26 25 56 30 67 4 11 22 55 39 97 61 149 65 375 14 710 -5
28 1 51 22 95 l27 58 11 -65 10 -65 8 65 c9 77 2 352 -18 650 -8 118 -19 287
-24 375 -6 88 -19 225 -30 305 -11 80 -24 213 -30 295 -6 83 -13 168 -16 191
-5 40 -4 41 43 65 98 49 193 104 193 112 0 4 -7 7 -16 7 -8 0 -13 4 -9 9 12
20 24 165 26 294 0 73 4 138 7 144 9 12 240 33 387 34 61 1 137 5 170 9 65 8
235 12 235 6z m284 -28 c15 -29 22 -57 11 -47 -7 8 -36 79 -31 79 3 0 12 -14
20 -32z m-1323 -156 c1 -116 3 -128 10 -82 5 30 9 82 8 115 -1 123 -13 110
104 110 l102 0 -2 -120 c-3 -141 -20 -287 -38 -331 -9 -22 -28 -38 -71 -59
-33 -15 -71 -34 -86 -41 l-27 -14 4 93 c5 96 4 96 -24 -44 -6 -25 -25 -68 -43
-95 -23 -34 -44 -88 -67 -174 -61 -225 -102 -374 -131 -465 -15 -49 -31 -103
-34 -120 -32 -148 -109 -386 -160 -495 -14 -30 -32 -75 -40 -100 -22 -70 -76
-223 -86 -245 -5 -11 -39 -94 -76 -185 -59 -146 -68 -176 -75 -260 -14 -173
-29 -271 -46 -303 -8 -18 -37 -59 -63 -92 -26 -33 -66 -98 -90 -144 -43 -86
-142 -374 -153 -446 -9 -54 1 -33 63 140 55 153 108 285 122 299 12 15 10 -42
-7 -157 -8 -56 -21 -151 -30 -212 -8 -60 -15 -155 -15 -210 0 -87 5 -115 35
-209 19 -60 35 -124 35 -142 0 -35 -52 -120 -123 -201 -54 -61 -100 -133 -92
-141 4 -4 15 4 26 17 l19 23 0 -26 c0 -15 7 -55 16 -90 l16 -63 -30 -79 c-17
-43 -33 -88 -37 -99 -5 -16 -10 -12 -28 25 -25 52 -155 182 -207 209 -114 58
-308 54 -443 -9 -44 -21 -146 -116 -206 -193 -27 -35 -60 -96 -75 -140 -10
-32 -34 -30 -65 3 -26 28 -30 43 -36 109 -3 42 -10 94 -16 116 -5 22 -18 128
-28 236 -22 236 -16 286 51 429 62 131 88 189 88 196 0 3 6 20 14 37 65 142
85 235 76 357 -4 52 -6 156 -6 230 1 154 -1 147 112 335 37 61 91 161 121 223
30 61 56 112 57 112 2 0 -1 -21 -5 -47 -10 -59 -11 -98 -3 -90 3 3 17 68 30
144 13 76 39 208 58 293 19 85 44 203 55 262 11 59 45 214 74 345 30 131 66
297 81 368 15 72 42 202 61 290 19 88 39 187 44 220 24 144 31 180 40 209 5
17 23 94 41 171 17 77 43 179 56 227 13 48 24 93 24 100 0 11 86 13 453 12
248 0 497 2 552 5 55 4 103 5 108 3 4 -2 8 -65 8 -140z m-1171 48 c-6 -11 -13
-20 -15 -20 -3 0 -49 -7 -103 -15 -95 -14 -126 -15 -137 -3 -10 10 54 30 138
43 123 19 130 19 117 -5z m2260 -4240 c13 -8 13 -10 -2 -10 -9 0 -20 5 -23 10
-8 13 5 13 25 0z m-40 -10 c0 -6 17 -10 40 -8 22 1 42 -1 45 -3 10 -11 -71 -8
-102 3 -23 9 -38 9 -56 1 -16 -8 -28 -8 -38 -1 -11 8 -11 9 2 5 9 -3 22 -1 30
4 19 12 79 11 79 -1z m200 -19 c19 -10 61 -33 94 -50 l58 -31 -28 -11 c-32
-13 -123 -16 -314 -10 -112 4 -131 2 -180 -18 -30 -13 -57 -26 -60 -29 -3 -4
-21 -20 -40 -37 l-34 -30 27 37 c22 30 26 41 17 58 -5 11 -14 29 -20 39 -6 14
-5 23 5 31 11 10 15 7 21 -15 6 -24 10 -26 44 -23 21 2 36 0 34 -4 -3 -5 -13
-8 -23 -8 -23 0 -63 -29 -41 -30 9 0 20 4 25 9 18 16 80 32 145 37 39 4 70 12
76 20 6 8 36 21 65 30 30 9 63 22 74 30 19 13 18 14 -7 14 -15 0 -30 5 -34 12
-10 16 51 3 96 -21z m-390 11 c0 -7 -62 -48 -67 -44 -2 0 -21 -5 -44 -14 -23
-8 -44 -13 -46 -11 -4 5 80 43 86 39 2 -2 7 0 10 5 3 5 17 14 31 20 32 15 30
14 30 5z m40 -2 c8 -5 11 -10 5 -10 -5 0 -17 5 -25 10 -8 5 -10 10 -5 10 6 0
17 -5 25 -10z m-30 -29 c0 -11 -40 -41 -54 -41 -5 0 1 11 14 25 24 26 40 32
40 16z m664 -91 c44 -11 99 -32 122 -45 44 -26 63 -45 45 -45 -6 0 -11 -8 -11
-18 0 -32 -65 -55 -172 -60 -194 -9 -439 40 -475 94 -14 22 -14 27 -2 34 15
10 6 15 -41 23 -14 3 61 3 165 0 173 -3 193 -2 225 16 45 24 50 24 144 1z
m-939 0 c-3 -5 -12 -10 -18 -10 -7 0 -6 4 3 10 19 12 23 12 15 0z m-2208 -176
c-3 -3 -12 -4 -19 -1 -8 3 -5 6 6 6 11 1 17 -2 13 -5z m181 -1 c-32 -8 -19
-24 17 -21 19 1 37 -1 41 -5 4 -4 -3 -7 -15 -7 -35 0 -15 -17 29 -24 22 -3 40
-11 40 -16 0 -14 28 -12 33 3 2 8 16 4 43 -15 21 -15 49 -26 61 -25 21 1 22 3
8 24 -9 13 -12 23 -8 23 10 0 38 -42 35 -52 -1 -5 3 -8 8 -8 6 0 10 -5 10 -10
0 -7 -7 -7 -21 1 -23 12 -58 10 -234 -11 -80 -10 -132 -10 -257 0 -170 14
-284 4 -320 -28 -24 -21 -22 -7 4 28 17 23 25 27 39 20 22 -12 50 -14 32 -2
-6 4 43 7 110 7 119 0 122 1 125 23 3 21 0 22 -65 22 -47 0 -80 -6 -104 -18
-35 -18 -36 -18 -31 0 4 17 53 36 75 30 5 -1 6 2 2 7 -7 12 42 37 70 35 11 -1
28 -2 38 -3 11 -1 17 -9 17 -25 0 -41 74 -43 173 -4 24 9 26 13 13 20 -30 17
-12 36 34 36 10 0 9 -2 -2 -5z m-432 -90 c-4 -8 -12 -13 -20 -10 -7 3 -19 0
-25 -6 -6 -6 -13 -8 -17 -5 -3 4 9 23 28 43 31 35 33 36 36 15 2 -12 1 -28 -2
-37z m3698 2 c8 -22 -4 -105 -21 -137 -19 -39 -51 -52 -187 -78 -106 -19 -143
-21 -340 -18 -234 4 -263 10 -286 53 -17 33 -5 86 26 108 21 16 46 18 177 19
202 1 514 32 578 57 35 14 46 13 53 -4z m-3024 -5 c0 -5 -2 -10 -4 -10 -3 0
-8 5 -11 10 -3 6 -1 10 4 10 6 0 11 -4 11 -10z m1730 -60 c0 -5 -5 -10 -11
-10 -5 0 -7 5 -4 10 3 6 8 10 11 10 2 0 4 -4 4 -10z m-2313 -6 c-3 -3 -12 -4
-19 -1 -8 3 -5 6 6 6 11 1 17 -2 13 -5z m588 -4 c17 -4 26 -8 21 -9 -5 0 4
-11 19 -23 37 -29 56 -75 43 -104 -13 -28 -88 -54 -156 -54 -76 0 -231 30
-291 56 -58 26 -82 51 -92 97 l-7 27 107 -2 c58 -1 138 3 176 9 84 12 139 13
180 3z m191 -307 c9 -47 -33 -135 -77 -162 -53 -32 -286 -82 -379 -81 -19 0
-105 0 -190 1 -152 0 -322 19 -364 41 -76 38 -96 102 -53 165 33 49 64 58 133
38 93 -27 215 -35 363 -24 249 18 415 38 471 57 66 23 86 16 96 -35z"/>
<path d="M2893 10747 c18 -15 18 -16 -5 -20 -21 -4 -21 -4 4 -6 14 0 28 -6 30
-13 3 -8 13 -4 29 11 22 22 22 23 2 12 -29 -15 -36 -14 -29 4 3 8 1 15 -3 15
-5 0 -18 3 -28 6 -17 5 -17 5 0 -9z"/>
<path d="M2815 10735 c-17 -8 -23 -14 -14 -14 9 -1 30 6 45 14 36 19 10 19
-31 0z"/>
<path d="M2755 10710 c-3 -5 -16 -10 -28 -10 -14 0 -18 -3 -11 -10 6 -6 23 -6
48 1 29 8 36 13 25 20 -18 11 -26 11 -34 -1z"/>
<path d="M2860 10689 c0 -5 5 -7 10 -4 6 3 10 8 10 11 0 2 -4 4 -10 4 -5 0
-10 -5 -10 -11z"/>
<path d="M2962 10679 c2 -7 10 -15 17 -17 8 -3 12 1 9 9 -2 7 -10 15 -17 17
-8 3 -12 -1 -9 -9z"/>
<path d="M2350 10576 c0 -2 9 -6 20 -9 11 -3 20 -1 20 4 0 5 -9 9 -20 9 -11 0
-20 -2 -20 -4z"/>
<path d="M2125 10440 c-10 -11 -13 -20 -8 -20 13 0 38 29 31 35 -3 3 -13 -4
-23 -15z"/>
<path d="M2103 9188 c4 -68 35 -120 82 -137 39 -14 65 -14 65 -1 0 6 -12 10
-27 10 -49 0 -83 38 -104 116 l-19 69 3 -57z"/>
<path d="M3399 9125 c-3 -2 -35 -5 -72 -7 -37 -1 -67 -6 -67 -11 0 -6 30 -8
70 -5 67 5 90 12 78 23 -2 3 -7 3 -9 0z"/>
<path d="M2530 9110 c-11 -7 3 -10 48 -10 35 0 62 4 62 10 0 13 -90 13 -110 0z"/>
<path d="M3110 8992 c0 -23 22 -72 33 -72 5 0 5 10 1 23 -20 66 -34 86 -34 49z"/>
<path d="M2883 8816 c-73 -15 -99 -32 -33 -22 120 18 180 22 233 16 58 -6 87
2 44 14 -36 10 -177 5 -244 -8z"/>
<path d="M2945 8760 c-33 -6 -27 -7 38 -9 45 0 77 3 77 9 0 11 -53 11 -115 0z"/>
<path d="M3501 8087 c-13 -20 -13 -21 1 -9 13 10 16 9 21 -10 4 -14 1 -29 -8
-38 -10 -10 -15 -11 -15 -2 0 7 5 12 11 12 5 0 7 5 4 10 -11 17 -45 -9 -44
-33 0 -21 1 -21 8 -2 7 18 8 18 18 1 9 -17 11 -17 26 -1 19 19 22 13 6 -16 -5
-11 -14 -17 -20 -14 -5 4 -9 -1 -9 -9 0 -26 32 -15 43 14 3 10 6 6 7 -10 1
-14 6 -34 11 -45 13 -28 2 35 -19 105 -20 70 -24 75 -41 47z"/>
<path d="M3440 7980 c0 -5 5 -10 10 -10 6 0 10 5 10 10 0 6 -4 10 -10 10 -5 0
-10 -4 -10 -10z"/>
<path d="M2882 7225 c0 -16 2 -22 5 -12 2 9 2 23 0 30 -3 6 -5 -1 -5 -18z"/>
<path d="M506 7283 c-6 -19 -15 -23 -47 -23 -24 0 -38 -4 -34 -10 9 -15 71
-12 85 5 6 8 10 22 8 32 -4 15 -5 15 -12 -4z"/>
<path d="M665 7190 c-3 -5 -18 -10 -33 -10 -23 -1 -25 -2 -9 -11 22 -13 57 -3
57 17 0 16 -6 18 -15 4z"/>
<path d="M818 7015 c3 -20 0 -25 -17 -25 -11 0 -21 -5 -21 -11 0 -11 38 -3 53
11 10 9 0 50 -12 50 -5 0 -6 -11 -3 -25z"/>
<path d="M780 6584 c0 -11 9 -29 20 -39 25 -23 25 -14 0 27 -16 27 -20 29 -20
12z"/>
<path d="M2110 7305 c0 -8 4 -15 10 -15 5 0 7 7 4 15 -4 8 -8 15 -10 15 -2 0
-4 -7 -4 -15z"/>
<path d="M2122 7232 c1 -18 5 -35 10 -38 11 -7 10 37 -2 56 -6 10 -9 5 -8 -18z"/>
<path d="M2150 7200 c0 -5 5 -10 10 -10 6 0 10 5 10 10 0 6 -4 10 -10 10 -5 0
-10 -4 -10 -10z"/>
<path d="M2472 7240 c0 -14 2 -19 5 -12 2 6 2 18 0 25 -3 6 -5 1 -5 -13z"/>
<path d="M1609 6378 c11 -24 24 -68 29 -98 l9 -55 2 47 c1 46 -27 129 -48 143
-6 3 -3 -13 8 -37z"/>
<path d="M1963 6101 l-23 -19 23 2 c14 0 24 8 24 18 2 22 3 22 -24 -1z"/>
<path d="M2006 6098 c3 -5 10 -6 15 -3 13 9 11 12 -6 12 -8 0 -12 -4 -9 -9z"/>
<path d="M2018 6063 c12 -2 22 -9 22 -14 0 -5 5 -9 11 -9 8 0 8 5 -1 15 -7 8
-22 14 -34 14 -20 -2 -20 -2 2 -6z"/>
<path d="M1884 6044 c-18 -14 -18 -14 6 -3 31 14 36 19 24 19 -6 0 -19 -7 -30
-16z"/>
<path d="M2007 6029 c7 -7 15 -10 18 -7 3 3 -2 9 -12 12 -14 6 -15 5 -6 -5z"/>
<path d="M1885 6020 c-13 -6 -15 -9 -5 -9 8 0 22 4 30 9 18 12 2 12 -25 0z"/>
<path d="M2000 6000 c0 -5 5 -10 11 -10 5 0 7 5 4 10 -3 6 -8 10 -11 10 -2 0
-4 -4 -4 -10z"/>
<path d="M2052 5980 c0 -19 2 -27 5 -17 2 9 2 25 0 35 -3 9 -5 1 -5 -18z"/>
<path d="M2032 5975 c0 -16 2 -22 5 -12 2 9 2 23 0 30 -3 6 -5 -1 -5 -18z"/>
<path d="M1619 5939 l-24 -21 27 16 c17 10 29 12 33 6 3 -6 11 -10 17 -10 7 0
6 6 -2 15 -16 20 -23 19 -51 -6z"/>
<path d="M1500 5879 c0 -5 5 -7 10 -4 6 3 10 1 10 -5 0 -6 5 -8 11 -4 8 4 7 9
-2 15 -19 12 -29 11 -29 -2z"/>
<path d="M1448 5863 c7 -3 16 -2 19 1 4 3 -2 6 -13 5 -11 0 -14 -3 -6 -6z"/>
<path d="M2006 5835 c4 -8 8 -15 10 -15 2 0 4 7 4 15 0 8 -4 15 -10 15 -5 0
-7 -7 -4 -15z"/>
<path d="M2030 5828 c0 -15 -4 -28 -10 -30 -6 -2 -6 -9 0 -17 6 -11 10 -5 15
23 4 20 5 40 1 43 -3 4 -6 -5 -6 -19z"/>
<path d="M2013 5680 c0 -30 2 -43 4 -27 2 15 2 39 0 55 -2 15 -4 2 -4 -28z"/>
<path d="M2000 5600 c0 -5 5 -10 11 -10 5 0 7 5 4 10 -3 6 -8 10 -11 10 -2 0
-4 -4 -4 -10z"/>
<path d="M1970 5456 c0 -8 4 -17 9 -20 5 -4 7 3 4 14 -6 23 -13 26 -13 6z"/>
<path d="M1958 5413 c5 -21 7 -23 10 -9 2 10 0 22 -6 28 -6 6 -7 0 -4 -19z"/>
<path d="M4011 5964 c0 -11 3 -14 6 -6 3 7 2 16 -1 19 -3 4 -6 -2 -5 -13z"/>
<path d="M4101 5645 c-1 -6 -34 -9 -83 -8 -45 1 -89 -3 -98 -7 -13 -8 133 -17
178 -11 6 1 12 -4 12 -10 0 -7 2 -10 5 -7 3 3 1 16 -4 29 -5 13 -10 20 -10 14z"/>
<path d="M4061 2893 c-29 -130 -61 -284 -70 -338 -6 -33 -15 -87 -21 -120 -20
-121 -7 -106 19 22 15 72 35 155 44 185 17 55 51 287 44 295 -3 2 -10 -18 -16
-44z"/>
<path d="M3540 2715 c0 -3 32 -69 70 -146 89 -176 180 -442 180 -523 0 -55
-28 -174 -56 -243 -9 -19 -13 -38 -10 -41 9 -8 11 -4 56 98 63 143 63 172 0
360 -54 158 -211 500 -230 500 -5 0 -10 -2 -10 -5z"/>
<path d="M3327 1824 c-16 -16 217 -221 363 -321 144 -98 471 -246 502 -227 5
3 -19 16 -54 28 -71 26 -262 120 -353 174 -85 51 -386 282 -432 332 -11 11
-22 17 -26 14z"/>
<path d="M3220 1710 c0 -8 23 -46 52 -85 28 -38 72 -98 97 -132 60 -80 100
-139 167 -242 47 -73 54 -91 54 -133 0 -47 -27 -119 -50 -133 -13 -8 -13 -25
0 -25 18 0 82 111 87 151 5 35 -2 51 -58 145 -35 58 -106 158 -156 223 -51 64
-112 141 -134 171 -56 73 -59 77 -59 60z"/>
<path d="M2261 2982 c-12 -43 -21 -83 -21 -88 0 -5 -20 -38 -45 -74 -108 -155
-168 -253 -118 -190 164 202 152 183 188 306 18 63 29 116 25 119 -4 3 -17
-30 -29 -73z"/>
<path d="M1834 2758 c0 -40 -9 -125 -21 -187 -12 -63 -20 -117 -18 -119 5 -6
6 -4 39 116 25 89 33 189 20 240 -12 43 -21 21 -20 -50z"/>
<path d="M2127 2387 c-21 -29 -76 -104 -121 -167 -44 -63 -108 -152 -141 -196
-156 -212 -184 -253 -200 -289 -19 -46 -70 -206 -110 -345 -15 -52 -36 -124
-46 -159 -21 -69 -24 -91 -11 -76 10 13 33 81 76 230 38 132 122 349 152 391
10 15 24 34 29 43 64 100 93 142 120 176 41 51 117 160 213 305 41 63 80 118
85 121 5 4 5 9 1 12 -5 3 -26 -18 -47 -46z"/>
<path d="M1285 2175 c4 -27 13 -88 21 -135 9 -56 14 -163 14 -313 0 -219 -1
-231 -26 -310 -15 -45 -30 -86 -33 -92 -4 -5 -19 -42 -34 -80 -15 -39 -54
-113 -87 -164 -34 -51 -58 -96 -55 -99 7 -7 2 -13 82 107 59 88 144 250 165
316 6 17 9 144 9 290 -2 211 -6 284 -22 385 -12 69 -26 130 -31 135 -6 7 -7
-7 -3 -40z"/>
<path d="M1883 5303 c9 -2 25 -2 35 0 9 3 1 5 -18 5 -19 0 -27 -2 -17 -5z"/>
<path d="M1790 5296 c0 -2 7 -7 16 -10 8 -3 12 -2 9 4 -6 10 -25 14 -25 6z"/>
<path d="M1247 683 c-4 -3 -7 -11 -7 -17 0 -6 5 -5 12 2 6 6 9 14 7 17 -3 3
-9 2 -12 -2z"/>
<path d="M380 8141 c-58 -19 -108 -52 -157 -104 -86 -91 -116 -191 -89 -297
43 -167 174 -270 343 -270 92 0 170 36 240 113 95 104 119 239 64 362 -27 61
-116 150 -180 178 -50 22 -177 33 -221 18z m315 -121 c24 -27 16 -79 -16 -102
-24 -18 -29 -18 -61 -5 -43 18 -57 57 -33 94 29 43 77 49 110 13z m-261 -36
c25 -24 20 -81 -9 -109 -47 -48 -125 -23 -125 41 0 66 91 112 134 68z m-169
-87 c5 -91 113 -121 186 -51 l28 27 53 -22 c74 -31 196 -108 214 -137 15 -22
14 -27 -10 -68 -85 -146 -288 -189 -440 -93 -90 57 -145 180 -132 294 9 80 20
95 63 91 33 -3 36 -5 38 -41z"/>
</g>
</svg>
