<?xml version="1.0" encoding="UTF-8" standalone="no"?>
<svg
   version="1.1"
   viewBox="-10 0 272 256"
   id="svg4"
   sodipodi:docname="JIAN_1.svg"
   inkscape:version="1.1 (c4e8f9e, 2021-05-24)"
   xmlns:inkscape="http://www.inkscape.org/namespaces/inkscape"
   xmlns:sodipodi="http://sodipodi.sourceforge.net/DTD/sodipodi-0.dtd"
   xmlns="http://www.w3.org/2000/svg"
   xmlns:svg="http://www.w3.org/2000/svg">
  <defs
     id="defs8" />
  <sodipodi:namedview
     id="namedview6"
     pagecolor="#ffffff"
     bordercolor="#666666"
     borderopacity="1.0"
     inkscape:pageshadow="2"
     inkscape:pageopacity="0.0"
     inkscape:pagecheckerboard="0"
     showgrid="false"
     inkscape:zoom="2.2280235"
     inkscape:cx="178.18483"
     inkscape:cy="111.98266"
     inkscape:window-width="1327"
     inkscape:window-height="791"
     inkscape:window-x="0"
     inkscape:window-y="25"
     inkscape:window-maximized="0"
     inkscape:current-layer="svg4" />
  <path
     fill="currentColor"
     d="M85 24q7 10 4 14q-1 2 -9 21q-7 27 -8 48q-3 23 -2 71q-1 11 7 20q6 6 10 19q-2 5 -5 3q-5 -1 -8 -13q-5 -8 -13 -17q-3 -7 6 -11q-1 -36 1 -60q1 -25 4 -55q-20 31 -43 52q-5 4 -1 -2q15 -15 26 -35q1 -2 4 -7q6 -11 16 -26q9 -14 9 -22q-1 -4 2 0zM181 62q-14 2 -22 4 v17q15 -12 22 -21zM186 31q-17 7 -27 9q-1 22 -1 23q4 0 13 -2q6 -1 11 -2q11 -11 15 -24q0 -7 -11 -4zM107 154q16 11 38 23q-2 -6 4 -7q5 2 5 -5v-22v-11q-5 2 -13 4q-5 1 -7 1q-12 4 -19 1q-5 0 0 -1q17 -2 39 -7v-10q1 -7 1 -9q-17 5 -22 3q-4 0 0 -1q3 0 10 -2t12 -3 v-18q-12 4 -20 3q-5 0 0 -1t12 -3q3 0 8 -2v-21q-3 1 -7 2q-6 2 -10 3q-9 2 -18 1q-6 -1 0 -2q9 1 15 -2q3 0 7 -1q5 -2 13 -3v-24q-10 2 -17 0q-5 0 0 -2q10 0 17 -2q0 -19 -1 -23q0 -6 -2 -12q-3 -5 1 -1q8 9 8 11q-3 7 -2 25h4q13 -2 21 -5q9 -4 13 -1q5 6 10 11 q3 4 -2 6q-8 1 -15 12q23 -2 36 -8q5 -3 12 4q2 4 -2 4q-10 0 -30 4q-5 2 -4 1q1 -2 7 -4q3 -1 -1 -1q-12 1 -20 3q-19 18 -30 24h2q2 -1 9 -4q2 0 4 -2l2 -2q2 -2 5 -1q4 2 9 1q2 1 3 3q0 2 -2 2q-12 0 -32 6v18q11 -2 14 -6q0 -1 6 -1q2 1 6 1h5q2 1 2 2q-1 1 -4 1 q-16 2 -29 6v19q12 -2 29 -4q5 0 8 -2q4 -3 10 0q15 8 18 9q3 2 3 4q-1 1 -4 1q-13 -1 -20 -7q-3 -3 -16 -2q-6 0 -20 3q-4 1 -8 1q-1 2 -1 4v33q-1 11 5 17q3 3 27 15q11 3 19 3q19 -1 41 1q3 0 3 1t-2 2q-25 -1 -37 3q-8 2 -24 -7q-5 0 -15 -5q-5 -3 -7 -5q2 5 -3 5 q-6 1 -12 -11l-2 -4q-29 -16 -45 -27h-1q-7 20 -25 37q-5 3 -2 -2q16 -16 24 -37q-10 -6 -24 -5q-4 1 0 -1q12 -6 15 -4q3 1 8 5q0 1 2 1q3 -10 6 -24q0 -3 -4 -3q-5 2 -10 6q-1 1 -2 1q-3 2 -4 1t1 -4q12 -14 17 -44q0 -2 -1 -2q0 -1 -2 0q-12 9 -19 6q-4 0 0 -2 q7 -1 14 -5q2 -1 4 -3q1 -4 5 -4q1 1 4 2q2 1 4 1q2 2 2 3q0 2 -2 2q-3 1 -5 8q-8 21 -15 36q2 -1 4 -3q1 -1 4 -3q4 -4 14 2q3 2 1 4q-5 3 -7 10q-2 4 -3 9q-1 6 -2 9h1z"
     id="path2"
     style="fill:none;stroke:#ff0000;stroke-opacity:1" />
  <path
     style="fill:none;stroke:#000000;stroke-width:1px;stroke-linecap:butt;stroke-linejoin:miter;stroke-opacity:1"
     d="M 89.547036,20.645279 62.769497,71.543045 38.036044,105.47489 18.617218,125.30253 v 0"
     id="path919" />
  <path
     style="fill:none;stroke:#000000;stroke-width:1px;stroke-linecap:butt;stroke-linejoin:miter;stroke-opacity:1"
     d="m 75.851654,48.240453 -7.358714,82.376707 0.204409,52.12422 -4.292583,2.24849 11.651296,17.37474 10.220435,23.91582"
     id="path921" />
  <path
     style="fill:none;stroke:#000000;stroke-width:1px;stroke-linecap:butt;stroke-linejoin:miter;stroke-opacity:1"
     d="m 78.100149,88.100149 14.104201,-2.657313 6.68883,-2.399669 6.78563,-5.493128 6.78563,1.938751 -7.46382,18.796626 -9.91769,24.181334 -5.571732,7.80043 15.823732,-9.02621 9.13764,2.00582 -4.45739,5.90604 -6.46321,24.0699 -9.69482,21.28403 -14.597946,17.16094 -3.231606,3.45448"
     id="path923" />
  <path
     style="fill:none;stroke:#000000;stroke-width:1px;stroke-linecap:butt;stroke-linejoin:miter;stroke-opacity:1"
     d="m 73.24173,151.55121 15.712294,-5.01456 59.060396,33.76471 45.5768,24.73851 18.83247,2.45156 42.90236,-1.22578"
     id="path925" />
  <path
     style="fill:none;stroke:#000000;stroke-width:1px;stroke-linecap:butt;stroke-linejoin:miter;stroke-opacity:1"
     d="m 129.50011,39.73536 22.34048,-1.364304 9.2234,-0.70908 6.72083,-1.394888 23.96671,-6.97444 L 197,30 l 7.84694,13.158151 -9.60977,5.233891 -13.38503,16.473886 -18.01832,16.044879 -5.37028,3.501025"
     id="path927" />
  <path
     style="fill:none;stroke:#000000;stroke-width:1px;stroke-linecap:butt;stroke-linejoin:miter;stroke-opacity:1"
     d="m 114.96636,69.743346 18.865,0.343 18.62543,-4.676379 23.09186,-3.763871 11.41044,-1.24175 18.77072,-2.401941 25.26485,-3.736351 -21.26162,6.761017"
     id="path929" />
  <path
     style="fill:none;stroke:#000000;stroke-width:1px;stroke-linecap:butt;stroke-linejoin:miter;stroke-opacity:1"
     d="m 128.95668,93.408782 18.77072,-2.668823 5.69349,-1.601293 14.63811,-4.5405 8.78209,-4.673041 4.99532,0.563988 6.929,-0.241709"
     id="path931" />
  <path
     style="fill:none;stroke:#000000;stroke-width:1px;stroke-linecap:butt;stroke-linejoin:miter;stroke-opacity:1"
     d="m 147.35259,-7.4124108 10.15178,18.1281788 -0.8057,60.74954 -1.28911,81.375382 -2.90051,23.84862 10.6352,19.17559"
     id="path933" />
  <path
     style="fill:none;stroke:#000000;stroke-width:1px;stroke-linecap:butt;stroke-linejoin:miter;stroke-opacity:1"
     d="m 127.61302,113.84496 23.04293,-2.98108 19.82014,-5.96215 4.5119,-1.85311 17.56419,-0.72512"
     id="path935" />
  <path
     style="fill:none;stroke:#000000;stroke-width:1px;stroke-linecap:butt;stroke-linejoin:miter;stroke-opacity:1"
     d="m 111.25737,138.9827 25.29888,-3.7062 21.25654,-5.05618 29.12164,-3.85949 15.43797,-1.55382 24.51029,12.07971"
     id="path937" />
</svg>
