<?xml version="1.0" encoding="UTF-8" standalone="no"?>
<svg
   version="1.1"
   viewBox="-10 0 266 256"
   id="svg1797"
   sodipodi:docname="LI_1.svg"
   inkscape:version="1.1 (c4e8f9e, 2021-05-24)"
   xmlns:inkscape="http://www.inkscape.org/namespaces/inkscape"
   xmlns:sodipodi="http://sodipodi.sourceforge.net/DTD/sodipodi-0.dtd"
   xmlns="http://www.w3.org/2000/svg"
   xmlns:svg="http://www.w3.org/2000/svg">
  <defs
     id="defs1801" />
  <sodipodi:namedview
     id="namedview1799"
     pagecolor="#ffffff"
     bordercolor="#666666"
     borderopacity="1.0"
     inkscape:pageshadow="2"
     inkscape:pageopacity="0.0"
     inkscape:pagecheckerboard="0"
     showgrid="false"
     inkscape:zoom="1.8639059"
     inkscape:cx="86.646003"
     inkscape:cy="135.19995"
     inkscape:window-width="1440"
     inkscape:window-height="900"
     inkscape:window-x="0"
     inkscape:window-y="0"
     inkscape:window-maximized="0"
     inkscape:current-layer="svg1797" />
  <path
     fill="currentColor"
     d="M116 -7q2 2 5 3l6 2q5 4 2 7q-3 0 -1 24q6 -1 19 -3q4 -1 6 -2q4 -1 6 -4q1 -5 9 -2q3 2 9 4h3q3 2 2 4q-1 1 -4 1q-16 -4 -49 6v6q9 7 5 9q-4 3 -6 5q0 4 -1 11t0 10q-4 16 1 24q1 3 -1 5q-2 1 -3 -1q-8 -13 -4 -21q2 -5 2 -24q-41 30 -66 53q-4 3 -5 2t3 -5 q57 -46 67 -62v-10q-4 1 -10 3q-16 3 -23 5q-7 4 -21 0q-5 -1 -1 -2l1 -1q27 -2 54 -10q-1 -25 -7 -35q-4 -4 2 -2zM146 58q51 1 62 16q-1 5 -6 3q-5 -3 -17 -3q-5 1 -5 0q-1 -1 2 -3q1 -1 0 -2q0 -1 -2 -2q-16 -6 -33 -8q-5 0 -1 -1zM147 94q8 3 14 6q4 3 4 4q0 2 -4 5 q-7 4 -24 28q6 1 5 4q0 1 -1 3q0 6 1 10q10 -1 19 -2q15 -2 28 -4q1 -9 10 -6q2 3 9 5q10 3 21 7q2 2 2 4q-1 2 -3 2q-12 -2 -17 -7q-8 -3 -14 -3q-40 5 -55 8q3 30 2 39q-1 8 -8 24q-3 9 -12 8q-22 0 -35 -5q-6 -4 1 -2q24 3 37 -3q19 -17 9 -60q-63 11 -84 17q-9 3 -19 1 q-3 0 -3 -1t3 -2q52 -9 103 -18q-4 -17 -11 -16q-3 0 -3 -1t3 -2q2 -1 7 -1q7 -12 13 -28q0 -4 -1 -5t-5 1q-31 18 -42 28q-5 5 -7 -1q-5 -6 -1 -8q1 0 5 -6q-3 5 2 -2q4 -4 2 1q-2 4 -2 5q1 1 4 -1q13 -7 34 -16q6 -2 6 -7q-1 -6 7 -3z"
     id="path1795"
     style="fill:none;stroke:#ff0000;stroke-opacity:1" />
  <path
     style="fill:none;stroke:#000000;stroke-width:1px;stroke-linecap:butt;stroke-linejoin:miter;stroke-opacity:1"
     d="m 60.813542,42.231205 24.086238,-1.124024 28.58234,-6.422997 49.13592,-11.07967 0.96345,-3.372074 9.95565,3.372074 5.93146,0.752985"
     id="path2461" />
  <path
     style="fill:none;stroke:#000000;stroke-width:1px;stroke-linecap:butt;stroke-linejoin:miter;stroke-opacity:1"
     d="m 110.72847,-10.301393 9.82002,10.2051183 5.96903,2.214318 -2.69569,3.850988 1.05902,31.9631997 6.54668,7.316877 -5.96903,5.102559 -1.82922,23.105927 -1.54039,10.879041 3.46588,16.077875"
     id="path2463" />
  <path
     style="fill:none;stroke:#000000;stroke-width:1px;stroke-linecap:butt;stroke-linejoin:miter;stroke-opacity:1"
     d="M 134.79715,40.435373 79.246645,87.802524 52.193455,110.81218"
     id="path2465" />
  <path
     style="fill:none;stroke:#000000;stroke-width:1px;stroke-linecap:butt;stroke-linejoin:miter;stroke-opacity:1"
     d="m 141.53637,57.957368 42.55342,5.969031 19.06239,10.205118 -11.16786,-2.503142 -8.85728,1.059022"
     id="path2467" />
  <path
     style="fill:none;stroke:#000000;stroke-width:1px;stroke-linecap:butt;stroke-linejoin:miter;stroke-opacity:1"
     d="m 99.36806,110.04198 -7.12433,16.65552 49.48519,-25.22397 0.7702,-5.102558 16.65552,7.220598 -24.93514,33.98497 -5.68021,0.57765 8.27962,3.08079 5.48766,50.92932 -11.26414,31.9632 -23.77985,1.82922 -15.50022,-2.40687"
     id="path2469" />
  <path
     style="fill:none;stroke:#000000;stroke-width:1px;stroke-linecap:butt;stroke-linejoin:miter;stroke-opacity:1"
     d="m 26.411893,174.93832 17.063877,0.80617 89.7533,-17.87004 59.38767,-9.13657 1.61233,-4.29956 18.27313,6.04626 15.04846,6.5837"
     id="path2471" />
</svg>
