<?xml version="1.0" encoding="UTF-8" standalone="no"?>
<svg
   version="1.1"
   viewBox="-10 0 266 256"
   id="svg4"
   sodipodi:docname="ZI_1.svg"
   inkscape:version="1.1 (c4e8f9e, 2021-05-24)"
   xmlns:inkscape="http://www.inkscape.org/namespaces/inkscape"
   xmlns:sodipodi="http://sodipodi.sourceforge.net/DTD/sodipodi-0.dtd"
   xmlns="http://www.w3.org/2000/svg"
   xmlns:svg="http://www.w3.org/2000/svg">
  <defs
     id="defs8" />
  <sodipodi:namedview
     id="namedview6"
     pagecolor="#ffffff"
     bordercolor="#666666"
     borderopacity="1.0"
     inkscape:pageshadow="2"
     inkscape:pageopacity="0.0"
     inkscape:pagecheckerboard="0"
     showgrid="false"
     inkscape:zoom="1.7080781"
     inkscape:cx="142.26516"
     inkscape:cy="92.208901"
     inkscape:window-width="1327"
     inkscape:window-height="791"
     inkscape:window-x="0"
     inkscape:window-y="25"
     inkscape:window-maximized="0"
     inkscape:current-layer="svg4" />
  <path
     fill="currentColor"
     d="M155 16q17 2 29 13q1 2 -1 4q-11 2 -21 15t-28 27l12 6q1 1 0 2q-2 2 -1 11q25 -2 41 -3q4 0 6 -1q2 -4 8 -7q1 0 2 -1q5 -3 10 0v1q7 4 22 9q8 4 5 8q-3 6 -5 4q-6 0 -12 -4q-12 -7 -30 -5q-23 2 -46 5q5 99 -20 119q-5 3 -9 1q-8 -5 -27 -9q-16 -4 -31 -12q-3 -1 1 -1 q18 6 52 11q14 4 21 -6q12 -25 5 -102q-75 14 -81 20q-13 7 -25 3q-20 -2 -21 -3q-2 0 -2 -1q1 -1 3 -2q12 0 23 -2q10 -2 28 -6q54 -12 74 -15q-2 -11 -9 -13q-2 0 -6 -2t-7 -4t1 -2q11 0 16 1q14 -18 23 -37q4 -6 2 -9t-9 0q-31 11 -51 21q-16 8 -16 6q-5 -1 -6 -8 q-1 -1 -2 -4q-1 -2 -1 -4q-2 -2 1 -1q4 4 6 8q1 2 8 0l1 -1q5 -1 23 -8q24 -8 32 -11q1 0 2 -1q5 -2 5 -6q1 -4 5 -4z"
     id="path2"
     style="fill:none;stroke:#ff0000;stroke-opacity:1" />
  <path
     style="fill:none;stroke:#000000;stroke-width:1px;stroke-linecap:butt;stroke-linejoin:miter;stroke-opacity:1"
     d="m 73.766203,36.147173 6.60173,16.23376 68.506467,-26.190466 5.73593,-5.519479 16.23376,8.333331 -27.70562,35.064922 -11.21825,14.411301 -12.36031,-2.233791 19.65736,7.297052 2.82947,23.976027 0.7446,67.01375 -4.6165,19.9552 -1.78704,5.3611 -5.65893,10.42436 -9.67977,5.21218 -47.207458,-11.61571"
     id="path1052" />
  <path
     style="fill:none;stroke:#000000;stroke-width:1px;stroke-linecap:butt;stroke-linejoin:miter;stroke-opacity:1"
     d="m 1.395636,114.54075 41.491803,6.42831 81.230431,-20.45371 61.06892,-7.012696 20.7459,-5.843916 24.25225,9.350265 14.3176,6.720507"
     id="path1090" />
</svg>
